<?xml version="1.0"?>
<svg xmlns="http://www.w3.org/2000/svg" xmlns:xlink="http://www.w3.org/1999/xlink" xmlns:svgjs="http://svgjs.com/svgjs" version="1.1" x="0" y="0" viewBox="0 0 24 24" style="enable-background:new 0 0 512 512" xml:space="preserve"><g><path xmlns="http://www.w3.org/2000/svg" d="M22.5,9a1.5,1.5,0,0,0,0-3H18.872l.613-4.288a1.5,1.5,0,1,0-2.97-.424L15.842,6H9.872l.613-4.288a1.5,1.5,0,1,0-2.97-.424L6.842,6H2.5a1.5,1.5,0,0,0,0,3H6.413l-.857,6H1.5a1.5,1.5,0,0,0,0,3H5.128l-.613,4.288a1.5,1.5,0,0,0,2.97.424L8.158,18h5.97l-.613,4.288a1.5,1.5,0,0,0,2.97.424L17.158,18H21.5a1.5,1.5,0,0,0,0-3H17.587l.857-6Zm-7.944,6H8.587l.857-6h5.969Z" fill="#e7f6f2" data-original="#000000"/></g></svg>
