<svg id="Letter" xmlns="http://www.w3.org/2000/svg" width="48.875" height="48.88" viewBox="0 0 48.875 48.88">
  <defs>
    <style>
      .cls-1 {
        fill: #e7f6f2;
      }

      .cls-1, .cls-2 {
        fill-rule: evenodd;
      }

      .cls-2 {
        fill: #354343;
      }
    </style>
  </defs>
  <path id="Rounded_Rectangle_2" data-name="Rounded Rectangle 2" class="cls-1" d="M431.978,1161.99h32.868a8,8,0,0,1,8,8v32.89a8,8,0,0,1-8,8H431.978a8,8,0,0,1-8-8v-32.89A8,8,0,0,1,431.978,1161.99Z" transform="translate(-423.969 -1162)"/>
  <path id="B" class="cls-2" d="M436.28,1201.06h15.479c7.326,0,11.057-2.95,11.057-8.2,0-3.69-2.3-6.5-6.956-7.14v-0.05c4.146-.65,6.173-3.37,6.173-6.82,0-5.3-3.455-8.16-10.965-8.21H436.28v30.42Zm7.647-17.97v-6.64h5.759c2.811,0,4.239,1.11,4.239,3.32,0,2.17-1.428,3.32-4.239,3.32h-5.759Zm0,12.4v-6.73h6.5c2.857,0,4.285,1.2,4.285,3.32,0,2.21-1.428,3.41-4.285,3.41h-6.5Z" transform="translate(-423.969 -1162)"/>
</svg>
