<svg id="Letter" xmlns="http://www.w3.org/2000/svg" width="48.875" height="48.88" viewBox="0 0 48.875 48.88">
  <defs>
    <style>
      .cls-1 {
        fill: #e7f6f2;
      }

      .cls-1, .cls-2 {
        fill-rule: evenodd;
      }

      .cls-2 {
        fill: #354343;
      }
    </style>
  </defs>
  <path id="Rounded_Rectangle_2" data-name="Rounded Rectangle 2" class="cls-1" d="M431.978,1263.02h32.868a8,8,0,0,1,8,8v32.88a8,8,0,0,1-8,8H431.978a8,8,0,0,1-8-8v-32.88A8,8,0,0,1,431.978,1263.02Z" transform="translate(-423.969 -1263.03)"/>
  <path id="C" class="cls-2" d="M462.231,1293.38l-7.187-2.03c-0.737,3.41-2.9,4.98-5.851,4.98-4.745,0-7.095-3.27-7.095-9.45,0-6.22,2.626-9.45,7.049-9.45,2.949,0,4.884,1.2,5.759,4.98l6.957-2.81c-1.521-5.76-6.635-8.39-12.992-8.39-9.168,0-14.881,5.86-14.881,15.67s5.667,15.67,14.927,15.67C455.367,1302.55,460.434,1299.74,462.231,1293.38Z" transform="translate(-423.969 -1263.03)"/>
</svg>
