<?xml version="1.0" standalone="no"?>
<!DOCTYPE svg PUBLIC "-//W3C//DTD SVG 20010904//EN"
 "http://www.w3.org/TR/2001/REC-SVG-20010904/DTD/svg10.dtd">
<svg version="1.0" xmlns="http://www.w3.org/2000/svg"
 width="512.000000pt" height="512.000000pt" viewBox="0 0 512.000000 512.000000"
 preserveAspectRatio="xMidYMid meet">

<g transform="translate(0.000000,512.000000) scale(0.100000,-0.100000)"
fill="#e7f6f2" stroke="none">
<path d="M501 5104 c-75 -20 -143 -59 -197 -113 -59 -57 -87 -102 -116 -183
l-23 -63 0 -2020 0 -2020 23 -63 c55 -154 167 -257 317 -297 52 -13 212 -15
1242 -15 l1182 0 85 -68 c353 -283 836 -339 1255 -146 297 137 544 424 635
735 40 139 49 224 43 391 -6 166 -27 268 -87 412 -152 365 -510 644 -912 711
l-37 6 -3 737 c-4 719 -5 739 -26 815 -25 92 -67 183 -115 250 -49 68 -700
740 -769 793 -65 51 -175 105 -263 131 -55 16 -140 18 -1120 20 -904 2 -1068
0 -1114 -13z m2154 -299 c88 -23 152 -62 230 -140 207 -206 626 -647 648 -682
15 -23 35 -69 47 -102 19 -59 20 -82 20 -785 l0 -725 -37 -6 c-371 -63 -703
-307 -872 -643 -46 -91 -98 -254 -112 -351 -17 -120 -6 -363 20 -465 17 -64
61 -181 98 -263 4 -10 -210 -13 -1053 -13 -1181 0 -1102 -5 -1151 69 l-23 34
0 1992 0 1992 23 34 c49 74 -24 69 1097 69 871 0 1014 -2 1065 -15z m1326
-2753 c327 -86 585 -355 655 -682 18 -84 18 -276 0 -360 -70 -329 -323 -591
-658 -682 -69 -19 -107 -23 -228 -22 -127 1 -156 4 -233 27 -303 93 -513 297
-613 597 -27 80 -28 95 -28 260 0 165 1 180 28 260 109 329 372 558 713 620
77 14 278 4 364 -18z"/>
<path d="M890 3652 c-107 -53 -107 -211 0 -264 32 -16 76 -18 465 -18 389 0
433 2 465 18 107 53 107 211 0 264 -32 16 -76 18 -465 18 -389 0 -433 -2 -465
-18z"/>
<path d="M2490 3652 c-107 -53 -107 -211 0 -264 27 -14 60 -18 145 -18 126 0
165 13 202 69 48 71 20 175 -57 213 -27 14 -60 18 -145 18 -85 0 -118 -4 -145
-18z"/>
<path d="M890 2852 c-107 -53 -107 -211 0 -264 32 -16 76 -18 465 -18 389 0
433 2 465 18 107 53 107 211 0 264 -32 16 -76 18 -465 18 -389 0 -433 -2 -465
-18z"/>
<path d="M2490 2852 c-107 -53 -107 -211 0 -264 27 -14 60 -18 145 -18 126 0
165 13 202 69 48 71 20 175 -57 213 -27 14 -60 18 -145 18 -85 0 -118 -4 -145
-18z"/>
<path d="M890 2052 c-107 -53 -107 -211 0 -264 32 -16 76 -18 465 -18 389 0
433 2 465 18 107 53 107 211 0 264 -32 16 -76 18 -465 18 -389 0 -433 -2 -465
-18z"/>
<path d="M3944 1566 c-20 -9 -81 -73 -164 -173 -73 -87 -135 -159 -139 -161
-4 -1 -18 22 -33 51 -36 75 -73 115 -118 128 -100 30 -190 -38 -190 -145 0
-37 17 -78 90 -224 95 -191 123 -226 187 -238 81 -15 101 0 315 256 246 293
258 309 258 370 0 108 -107 179 -206 136z"/>
</g>
</svg>
