<?xml version="1.0" standalone="no"?>
<!DOCTYPE svg PUBLIC "-//W3C//DTD SVG 20010904//EN"
 "http://www.w3.org/TR/2001/REC-SVG-20010904/DTD/svg10.dtd">
<svg version="1.0" xmlns="http://www.w3.org/2000/svg"
 width="512.000000pt" height="512.000000pt" viewBox="0 0 512.000000 512.000000"
 preserveAspectRatio="xMidYMid meet">

<g transform="translate(0.000000,512.000000) scale(0.100000,-0.100000)"
fill="#e7f6f2" stroke="none">
<path d="M1853 5103 c-22 -18 -959 -1995 -969 -2044 -4 -18 1 -33 18 -51 14
-15 279 -146 678 -333 360 -169 659 -312 665 -316 5 -5 -452 -9 -1058 -9
-1054 0 -1067 0 -1087 -20 -20 -20 -20 -33 -20 -1154 l0 -1135 26 -20 c25 -20
39 -21 261 -21 l234 0 24 25 c32 31 32 69 0 100 -24 25 -26 25 -210 25 l-185
0 0 1025 0 1025 1620 0 1620 0 0 -663 c0 -365 3 -826 7 -1025 l6 -362 -1267 0
-1267 0 -24 -25 c-32 -31 -32 -69 0 -100 l24 -25 1310 0 1310 0 28 24 28 24
-4 831 c-2 457 -2 831 1 831 2 0 90 -40 194 -90 183 -87 214 -97 249 -84 21 9
14 -6 529 1086 285 606 446 958 446 978 0 18 -8 37 -20 47 -28 24 -3079 1464
-3115 1470 -21 3 -37 -1 -52 -14z m1547 -849 c800 -378 1458 -689 1462 -693 5
-5 -851 -1833 -866 -1848 -6 -7 -55 14 -238 101 l-138 65 0 216 c0 202 -1 216
-20 235 -19 19 -33 20 -499 20 l-479 0 -568 268 c-313 148 -663 313 -779 367
-115 54 -212 100 -214 101 -2 2 171 374 384 826 214 453 410 869 437 926 26
56 51 102 55 102 4 0 662 -309 1463 -686z"/>
<path d="M2875 4091 c-328 -31 -372 -41 -433 -104 -34 -35 -50 -67 -208 -402
l-108 -230 0 -80 c-1 -60 4 -89 18 -115 10 -19 100 -151 199 -293 252 -361
231 -350 613 -317 375 32 407 36 462 64 28 14 64 42 80 62 42 51 299 607 307
666 12 82 -37 198 -123 291 -40 42 -92 34 -120 -20 -17 -32 -17 -34 40 -120
42 -62 53 -86 53 -118 -1 -30 -32 -107 -125 -305 -68 -146 -132 -277 -142
-292 -10 -15 -33 -31 -51 -37 -43 -14 -614 -63 -647 -56 -40 9 -70 46 -250
304 -134 192 -163 241 -167 275 -4 36 12 75 129 325 95 203 141 290 160 304
24 18 68 24 344 48 361 32 360 32 412 -44 52 -75 114 -79 151 -9 10 18 9 29
-5 57 -44 94 -136 159 -239 169 -28 2 -185 -8 -350 -23z"/>
<path d="M2987 3770 c-146 -37 -248 -179 -171 -239 43 -34 85 -22 122 35 58
89 187 76 229 -23 19 -46 8 -97 -29 -133 -38 -39 -70 -46 -137 -32 -73 16 -90
4 -141 -98 -46 -91 -48 -107 -19 -144 40 -51 102 -30 142 50 15 29 21 32 81
36 194 16 314 209 240 386 -49 119 -193 192 -317 162z"/>
<path d="M2780 3033 c-51 -18 -69 -93 -32 -126 25 -23 78 -21 102 3 49 49 -6
146 -70 123z"/>
<path d="M1330 1230 c-28 -28 -26 -75 5 -105 27 -28 45 -31 78 -14 30 16 37
28 37 67 0 41 -30 72 -70 72 -17 0 -39 -9 -50 -20z"/>
<path d="M1800 1230 c-30 -30 -27 -83 6 -109 15 -12 34 -21 44 -21 10 0 29 9
44 21 52 41 23 129 -44 129 -17 0 -39 -9 -50 -20z"/>
<path d="M2270 1230 c-30 -30 -27 -83 6 -109 15 -12 34 -21 44 -21 10 0 29 9
44 21 52 41 23 129 -44 129 -17 0 -39 -9 -50 -20z"/>
</g>
</svg>
